<?xml version="1.0" encoding="utf-8"?>
<!-- Generator: Adobe Illustrator 22.0.1, SVG Export Plug-In . SVG Version: 6.00 Build 0)  -->
<svg version="1.1" id="Layer_1" xmlns="http://www.w3.org/2000/svg" xmlns:xlink="http://www.w3.org/1999/xlink" x="0px" y="0px"
	 viewBox="0 0 263.7 254.9" style="enable-background:new 0 0 263.7 254.9;" xml:space="preserve">
<style type="text/css">
	.st0{fill:#E3FAFC;stroke:#000000;stroke-width:9;stroke-miterlimit:10;}
	.st1{fill:#847558;}
	.st2{fill:#92D00D;stroke:#000000;stroke-miterlimit:10;}
	.st3{fill:#92D00D;}
	.st4{fill:#83B508;}
	.st5{fill:#FFFFFF;}
	.st6{fill:none;stroke:#000000;stroke-width:3;stroke-miterlimit:10;}
</style>
<g id="apple_full">
	<circle id="blue_x5F_apple" class="st0" cx="129" cy="125.7" r="119.8"/>
	<g id="apple_1_">
		<path id="stem" class="st1" d="M121,46.3h8.3c0,0,3.8,12.1,3.8,19.7s-1.3,12.1-1.3,12.1h-5.7C126.1,78.2,131.8,63.5,121,46.3z"/>
		<path id="apple_main" class="st2" d="M206.4,110c-14-42-48.4-43.3-52.9-40.8c-4,2.3-21.4,6.1-24.9,6.9c-3.5-0.8-20.9-4.6-24.9-6.9
			c-4.5-2.5-38.9-1.3-52.9,40.8c0,0-7.6,33.8,15.3,65s37.6,28.7,37.6,28.7s7,1.3,12.7,0c4.7-1,10.3-1.2,12.1-1.3
			c1.8,0,7.4,0.2,12.1,1.3c5.7,1.3,12.7,0,12.7,0s14.7,2.5,37.6-28.7S206.4,110,206.4,110z"/>
		<path id="apple_shadow_1" class="st3" d="M133.7,61.6c0,0,6.4-25.5,31.2-32.5c0,0,20.4-0.6,25.5-4.5
			C190.4,24.7,183.4,68,133.7,61.6z"/>
		<path id="apple_shadow_2" class="st4" d="M192.3,85.2c0,0-2.5,117.8-130.6,82.8c0,0,10.8,20.4,19.7,26.1c8.9,5.7,16.6,14,39.5,9.6
			c0,0,11.5-3.8,23.6,0s29.9-1.9,48.4-33.8S213.3,110,192.3,85.2z"/>
		<path id="apple_light" class="st5" d="M84,78.2c0,0-24.8,20.4-22.3,57.3C61.7,135.5,42,97.9,84,78.2z"/>
		<path id="apple_outline" class="st6" d="M207.4,129.7c0.9-14.6-3.1-29.3-12-40.9c-16.1-21.1-38.4-21.5-41.9-19.5
			c-4,2.3-21.4,6.1-24.9,6.9c-3.5-0.8-20.9-4.6-24.9-6.9c-3.5-2-25.8-1.6-41.9,19.5c-8.9,11.7-12.9,26.3-12,40.9
			c0.8,12.5,4.5,29.2,16.3,45.3c22.9,31.2,37.6,28.7,37.6,28.7s7,1.3,12.7,0c4.7-1,10.3-1.2,12.1-1.3c1.8,0,7.4,0.2,12.1,1.3
			c5.7,1.3,12.7,0,12.7,0s14.7,2.5,37.6-28.7C202.9,158.9,206.6,142.2,207.4,129.7z"/>
	</g>
</g>
</svg>
