<?xml version="1.0" encoding="utf-8"?>
<!-- Generator: Adobe Illustrator 22.0.1, SVG Export Plug-In . SVG Version: 6.00 Build 0)  -->
<svg version="1.1" id="draven_1_" xmlns="http://www.w3.org/2000/svg" xmlns:xlink="http://www.w3.org/1999/xlink" x="0px" y="0px"
	 viewBox="0 0 1000 1000" style="enable-background:new 0 0 1000 1000;" xml:space="preserve">
<style type="text/css">
	.st0{fill:#7A0505;stroke:#000000;stroke-width:9;stroke-miterlimit:10;}
	.st1{fill:#E3FAFC;stroke:#000000;stroke-width:9;stroke-miterlimit:10;}
	.st2{fill:none;}
	.st3{fill:#AD8D05;}
	.st4{stroke:#000000;stroke-miterlimit:10;}
	.st5{stroke:#000000;stroke-width:0.25;stroke-miterlimit:10;}
	.st6{fill:#514100;}
	.st7{fill:#705C09;}
	.st8{fill:#8E750C;}
	.st9{fill:#E8D587;}
</style>
<circle id="red" class="st0" cx="500.5" cy="495.5" r="188"/>
<circle id="blue" class="st1" cx="500.5" cy="495.5" r="188"/>
<g id="draven">
	<path class="st2" d="M444,529c0,0-1,11,1,12s17,31,17,31s6,7,6,8s5,13,14,18c0,0,2,1,9,0s10,1,10,1l10-3c0,0,9-5,9-7s8-17,8-17
		s13-20,15-29s3-18,2-18s4,5,7-1s3-15,6-16s5-20,5-21s-3-12-7-13l-1.5-0.5l2-9l-121,7l1,6c0,0-4-4-5-3c0,0-4,3-5,13s-1,13,1,16
		s6,9,6,11s2,7,1,8s5,6,7,6S443.5,527.5,444,529z"/>
	<path d="M437,450l1-9c0,0-7-18-6-18c0,0,2-13,9-23c0,0,9-27,29-38c0,0-8.5,12.5-7.5,14.5c0,0,20-19,30-20c0,0-19,19-15,21
		c0,0,15-14,17-14c0,0,10-16,21-19c0,0-14,12-11,14c0,0,20-9,22-8c0,0,18-8,20-9c0,0-11,9-12,10s-3,4-3,4s25-11,34-11c0,0,13-3,15-2
		c0,0-19,11-19,13s7-1,7-1l-5,9l-1,1l1,5c0,0-2,8,0,12l-4,3l-17,40l1,1c0,0,19-33,18-40c0,0,2,22-13,48c0,0,11-20,12-22
		c0,0-3,17-8,22c0,0,9-10,10-14c0,0-3,14-10,21c0,0,3-2,6-4c0,0-4,6-5,8h1l-1,3c0,0,6-6,6-8l2-2L558,451
		C558,451,496.5,522.5,437,450z"/>
	<path class="st3" d="M437,441c0,0,0,14,20,23c0,0,12,5,27,5l14-20l12,17h1l1,2c0,0,18-1,31-8s16-16,16-16s2,12,0,19s-29,25-56,33
		l0.5-3.5l-6,5h-1l-3-3v3l-46-21v2l-7-6l4,8c0,0-1,2-4-1l1,6c0,0-3-1-4,0c0,0-3-18-3-24S434.5,441.5,437,441z"/>
	<path class="st3" d="M483,549l-6-3c0,0-7-2-7,0s-2,44,8,58l7,20l-2-2l7,17c0,0-6-7-16-35s-11-62-7-67l15,8l2-2l3,9L483,549z"/>
	<path class="st3" d="M512,542l-6,8c0,0,9-6,10-7s5-4,5-4l2,26c0,0-5,47-5,49s0,18,0,18s4-28,5-28s4-49,4-50s0-8,0-8l-2-2l-1-3h1
		l2-9C527,532,515,538,512,542z"/>
	<path class="st3" d="M549,520l1,2c0,0,4,1,2,7c0,0,7-4-2-9"/>
	<path class="st3" d="M552,517v1c0,0,5,2,3,6c0,0,5-3-1-6S552,517,552,517z"/>
	<polyline class="st3" points="439,519 436,523 436,528 438,528 438,525 	"/>
	<path class="st4" d="M471,463c0,0-7,9,6,29c0,0-19-16-12-32"/>
	<path class="st4" d="M520,462c0,0,9,9,8,20c0,0,3-7-1-21S520,462,520,462z"/>
	<path class="st5" d="M529,457c0,0,5,20,2,28c0,0,6-14,2-32S529,457,529,457z"/>
	<path class="st4" d="M546,455l0.7,0.5l7.3,5.5c0,0,0-2-1-3s-9-8-9-8L546,455z"/>
	<path class="st4" d="M534.4,460c0,0,3.6-1,7.6,9c0,0-2-11-5-15S534.4,460,534.4,460z"/>
	<path class="st6" d="M489.5,484.5l-2-2c0,0,2-8,10-7s8,8,8,8l-2,3c0,0,0-3-1-2l-6-4C496.5,480.5,490.5,484.5,489.5,484.5z"/>
	<path class="st7" d="M496,490l-5-6v-3c0,0,2-4,6-3s6,2,6,4s-5,8-5,8H496z"/>
	<path class="st8" d="M492.9,486.5c0,0,0.4-4,2.4-4s5.7,3.5,5.7,3.5l-3,4h-2L492.9,486.5z"/>
	<path class="st9" d="M497.5,482.5c0,0,0.6,2.3,2,2c2.5-0.5-2,2-2,2S496.5,483.5,497.5,482.5z"/>
</g>
</svg>
