<?xml version="1.0" encoding="utf-8"?>
<!-- Generator: Adobe Illustrator 22.0.1, SVG Export Plug-In . SVG Version: 6.00 Build 0)  -->
<svg version="1.1" xmlns="http://www.w3.org/2000/svg" xmlns:xlink="http://www.w3.org/1999/xlink" x="0px" y="0px"
	 viewBox="0 0 1000 1000" style="enable-background:new 0 0 1000 1000;" xml:space="preserve">
<style type="text/css">
	.st0{fill:#F9E4F6;stroke:#000000;stroke-width:10;stroke-miterlimit:10;}
	.st1{fill:none;}
	.st2{fill:#E36482;}
	.st3{fill:#FFBFAB;}
	.st4{fill:#F0A790;}
	.st5{fill:#FFFFFF;}
	.st6{fill:none;stroke:#000000;stroke-width:10;stroke-miterlimit:10;}
	.st7{fill:#FCBEEA;stroke:#000000;stroke-width:10;stroke-miterlimit:10;}
	.st8{fill:#FF6AE7;}
	.st9{font-family:'Impact';}
	.st10{font-size:120px;}
</style>
<g id="bottom">
	<g>
		<circle id="circle" class="st0" cx="409.5" cy="423.5" r="223"/>
		<g>
			<path class="st1" d="M546.3,249c11.7,21.2,22.4,46.7,25.8,73.2c0,0-0.6-1.5-2.2-3.8c2.9,9.3-2.2,16.9-2.2,16.9
				c-1.5,4.8-2.4,9.6-2.9,14.3c0,9.5,0,18.5,0,22.1c1.3,12.2,4.4,20.5,4.4,20.5c2.9,55.3-20.4,93.2-20.4,93.2l-11.6,34.9l2.9,75.7
				c0,0,1.3,4,3.1,7.5C597.7,562.9,633,498.1,633,425C633,353.3,599,289.6,546.3,249z"/>
			<path class="st1" d="M283.8,403.6l-11.6-55.3l11.6-20.4c0,0-1.5-55.3,18.8-96.7C234.8,269.2,189,341.7,189,425
				c0,66.9,29.6,127,76.5,167.7l12.5-14.3C278,578.4,269.3,482.3,283.8,403.6z"/>
			<path class="st1" d="M516.8,549.2c0,0-2.4,2.6-7.4,5.3c1.5-0.6,3-1.4,4.5-2.4c6.4-4.3,9.7-7.8,11.2-10.5
				C521.6,546.3,516.8,549.2,516.8,549.2z"/>
			<path class="st1" d="M558.3,306.7c1.6,1.2,3,2.3,4.2,3.3C561.3,308.9,559.9,307.8,558.3,306.7z"/>
			<path class="st2" d="M537.2,520.1l11.6-34.9c0,0-23.3,32-20.4,43.7c1.2,5-0.7,9.4-3.3,12.8c-1.6,2.7-4.8,6.2-11.2,10.5
				c-1.5,1-3,1.8-4.5,2.4c-13.4,7.4-46,16.2-103.3-19.9c-78.6-49.5-55.3-168.9-55.3-168.9c14.6-8.7,26.2-23.3,26.2-23.3
				c94.2-83,157.3-53.7,181.3-35.8c1.6,1.1,2.9,2.2,4.2,3.3c4.4,3.7,6.7,6.3,6.7,6.3c0.3,0.7,0.5,1.3,0.7,2c1.6,2.3,2.2,3.8,2.2,3.8
				c-3.4-26.4-14.1-51.9-25.8-73.2c-37.5-28.8-84.3-46-135.3-46c-39.3,0-76.3,10.2-108.3,28.2c-20.4,41.4-18.8,96.7-18.8,96.7
				l-11.6,20.4l11.6,55.3c-14.6,78.6-5.8,174.7-5.8,174.7l-12.5,14.3c39,33.8,89.8,54.3,145.5,54.3c49.5,0,95.3-16.2,132.2-43.6
				c-1.8-3.5-3.1-7.5-3.1-7.5L537.2,520.1z"/>
			<path class="st3" d="M562.5,310c-1.2-1-2.6-2.1-4.2-3.3c-24-17.8-87.1-47.2-181.3,35.8c0,0-11.6,14.6-26.2,23.3
				c0,0-23.3,119.4,55.3,168.9c57.3,36.1,89.8,27.3,103.3,19.9c5-2.8,7.4-5.3,7.4-5.3s4.8-2.9,8.3-7.5c2.6-3.5,4.5-7.9,3.3-12.8
				c-2.9-11.6,20.4-43.7,20.4-43.7s23.3-37.9,20.4-93.2c0,0-3-8.2-4.4-20.5c0,1,0,1.5,0,1.5c-26.2,0-40.8-11.6-40.8-11.6
				c-2.9,8.7,8.7,26.2,8.7,26.2l1.5,7.3c2.9,17.5-5.8,20.4-5.8,20.4c2.9-2.9,2.9-8.7,2.9-8.7c2.9-14.6-8.7-32-8.7-32
				c-2.9-5.8-5.8-20.4-5.8-29.1s2.9-5.8,2.9-5.8l24.8-10.2c20.4-8.7,20.4,11.6,20.4,11.6c0,2.8,0,5.6,0,8.4
				c0.5-4.6,1.5-9.4,2.9-14.3c0,0,5.1-7.6,2.2-16.9c-0.2-0.7-0.4-1.3-0.7-2C569.2,316.3,566.9,313.7,562.5,310z M543,412.4
				c11.6,14.6,8.7,34.9,8.7,34.9c0-2.9-11.6-34.9-11.6-34.9C540.1,409.5,543,412.4,543,412.4z M491.3,296.6c0,0,2.2,8-0.7,13.8
				c0,0-2.9-7.9-14.6-11.2C476,299.3,489.1,297.3,491.3,296.6z M470.2,397.8c0,0,11.6-11.6,11.6-5.8c0,0-8.7,23.3,2.9,26.2
				C484.7,418.2,470.2,418.2,470.2,397.8z M451.3,431.3c0,0-9.4,2.4-11.3,7.1c-0.2,1-0.3,1.7-0.3,1.7c0-0.6,0.1-1.1,0.3-1.7
				c1-4.4,4.2-16.4,11.3-18.7C451.3,419.7,445.4,428.4,451.3,431.3z M446.9,365.8c-17.5,0-29.1-8.7-37.9-20.4
				c0,0,17.5-17.5,46.6-11.6c0,0,17.5,2.9,29.1,17.5h-2.9C481.8,351.2,464.4,365.8,446.9,365.8z M563.4,330.9
				c-5.8-40.8-32-14.6-32-14.6l-5.8-17.5c11.6-8.7,37.3,11.4,37.3,11.4C568.1,321.7,563.4,330.9,563.4,330.9z"/>
			<path class="st4" d="M544.4,329.4l-24.8,10.2c0,0-2.9-2.9-2.9,5.8s2.9,23.3,5.8,29.1c0,0,11.6,17.5,8.7,32c0,0,0,5.8-2.9,8.7
				c0,0,8.7-2.9,5.8-20.4l-1.5-7.3c0,0-11.6-17.5-8.7-26.2c0,0,14.6,11.6,40.8,11.6c0,0,0-0.6,0-1.5c0-3.5,0-12.6,0-22.1
				c0-2.8,0-5.7,0-8.4C564.8,341,564.8,320.7,544.4,329.4z M522.6,357.1c0,0,23.3-11.6,40.8,2.9C563.4,360,545.9,365.8,522.6,357.1z
				"/>
			<path class="st4" d="M484.7,351.2c-11.6-14.6-29.1-17.5-29.1-17.5c-29.1-5.8-46.6,11.6-46.6,11.6c8.7,11.6,20.4,20.4,37.9,20.4
				s34.9-14.6,34.9-14.6H484.7z M417.8,345.4c0,0,32-14.6,58.2,5.8C476,351.2,438.2,357.1,417.8,345.4z"/>
			<path class="st5" d="M417.8,345.4c20.4,11.6,58.2,5.8,58.2,5.8C449.8,330.9,417.8,345.4,417.8,345.4z"/>
			<path class="st5" d="M522.6,357.1c23.3,8.7,40.8,2.9,40.8,2.9C545.9,345.4,522.6,357.1,522.6,357.1z"/>
			<path class="st4" d="M439.9,438.4c-0.2,0.5-0.3,1.1-0.3,1.7C439.6,440,439.7,439.4,439.9,438.4z"/>
			<path class="st4" d="M439.9,438.4c1.9-4.7,11.3-7.1,11.3-7.1c-5.8-2.9,0-11.6,0-11.6C444.2,422,440.9,433.9,439.9,438.4z"/>
			<path class="st4" d="M481.8,392c0-5.8-11.6,5.8-11.6,5.8c0,20.4,14.6,20.4,14.6,20.4C473.1,415.3,481.8,392,481.8,392z"/>
			<path class="st4" d="M543,412.4c0,0-2.9-2.9-2.9,0c0,0,11.6,32,11.6,34.9C551.7,447.3,554.6,426.9,543,412.4z"/>
			<path d="M525.5,298.8l5.8,17.5c0,0,26.2-26.2,32,14.6c0,0,4.8-9.2-0.5-20.6C562.8,310.2,537.2,290.1,525.5,298.8z"/>
			<path d="M501,316c-10-24-19-28-19-28c-12,1-30,7-30,7C463.6,298.3,501,316,501,316z"/>
		</g>
		<circle class="st6" cx="411" cy="424" r="223"/>
	</g>
</g>
<g id="TOP">
	<circle class="st7" cx="409" cy="423" r="223"/>
	<text transform="matrix(1 0 0 1 295 478)" class="st8 st9 st10">PINK</text>
</g>
</svg>
