<?xml version="1.0" encoding="utf-8"?>
<!-- Generator: Adobe Illustrator 22.0.1, SVG Export Plug-In . SVG Version: 6.00 Build 0)  -->
<svg version="1.1" id="Layer_1" xmlns="http://www.w3.org/2000/svg" xmlns:xlink="http://www.w3.org/1999/xlink" x="0px" y="0px"
	 viewBox="0 0 1000 1000" style="enable-background:new 0 0 1000 1000;" xml:space="preserve">
<style type="text/css">
	.st0{stroke:#000000;stroke-width:2;stroke-miterlimit:10;}
	.st1{fill:none;stroke:#000000;stroke-width:2;stroke-miterlimit:10;}
</style>
<g>
	<circle class="st0" cx="445" cy="559" r="98"/>
	<circle class="st1" cx="444" cy="559" r="112"/>
	<circle class="st1" cx="443.5" cy="559.5" r="381"/>
	<circle class="st1" cx="445.5" cy="560.5" r="134"/>
	<circle class="st1" cx="445.5" cy="560.5" r="154"/>
	<circle class="st1" cx="445.5" cy="560.5" r="218"/>
	<circle class="st1" cx="445.5" cy="560.5" r="195"/>
	<circle class="st1" cx="445.5" cy="560.5" r="175"/>
	<circle class="st1" cx="445.5" cy="560.5" r="257"/>
	<circle class="st1" cx="445.5" cy="560.5" r="277"/>
	<circle class="st1" cx="443.5" cy="557.5" r="375.5"/>
	<circle class="st1" cx="445.5" cy="560.5" r="317"/>
	<circle class="st1" cx="445.5" cy="560.5" r="299"/>
	<circle class="st1" cx="443.5" cy="559.5" r="240"/>
</g>
<g id="black_balls">
	<circle id="b1" cx="579" cy="561" r="9"/>
	<circle id="b2" cx="597" cy="525" r="9"/>
	<circle id="b3" cx="550" cy="596" r="9"/>
	<circle id="b4" cx="609" cy="500" r="9"/>
	<circle id="b5" cx="632" cy="509" r="9"/>
	<circle id="b6" cx="659" cy="518" r="9"/>
	<circle id="b7" cx="684" cy="570" r="9"/>
	<circle id="b8" cx="703" cy="573" r="9"/>
	<circle id="b9" cx="723" cy="552" r="9"/>
	<circle id="b10" cx="745" cy="570" r="9"/>
	<circle id="b11" cx="763" cy="564" r="9"/>
</g>
</svg>
