<?xml version="1.0" encoding="utf-8"?>
<!-- Generator: Adobe Illustrator 22.0.1, SVG Export Plug-In . SVG Version: 6.00 Build 0)  -->
<svg version="1.1" id="Layer_1" xmlns="http://www.w3.org/2000/svg" xmlns:xlink="http://www.w3.org/1999/xlink" x="0px" y="0px"
	 viewBox="0 0 1000 1000" style="enable-background:new 0 0 1000 1000;" xml:space="preserve">
<style type="text/css">
	.st0{fill:none;stroke:#000000;stroke-width:4;stroke-miterlimit:10;}
	.st1{fill:#FF6AE7;stroke:#000000;stroke-miterlimit:10;}
</style>
<circle id="rotate" class="st0" cx="500" cy="500" r="157"/>
<line id="_x31_" class="st1" x1="499.5" y1="350.5" x2="499.5" y2="646.5"/>
<line id="_x32_" class="st1" x1="499.5" y1="351" x2="499.5" y2="647"/>
<line id="_x33_" class="st1" x1="499.5" y1="351" x2="499.5" y2="647"/>
<line id="_x34_" class="st1" x1="499.5" y1="351" x2="499.5" y2="647"/>
<line id="_x35_" class="st1" x1="499.5" y1="351" x2="499.5" y2="647"/>
<line id="_x36_" class="st1" x1="499.5" y1="351" x2="499.5" y2="647"/>
<line id="_x37_" class="st1" x1="499.5" y1="351" x2="499.5" y2="647"/>
<line id="_x38_" class="st1" x1="499.5" y1="351" x2="499.5" y2="647"/>
<line id="_x39_" class="st1" x1="499.5" y1="351" x2="499.5" y2="647"/>
<line id="_x31_0" class="st1" x1="499.5" y1="351" x2="499.5" y2="647"/>
<line id="_x31_1" class="st1" x1="499.5" y1="351" x2="499.5" y2="647"/>
<line id="_x31_2" class="st1" x1="499.5" y1="351" x2="499.5" y2="647"/>
<line id="_x31_3" class="st1" x1="499.5" y1="351" x2="499.5" y2="647"/>
<line id="_x31_4" class="st1" x1="499.5" y1="351" x2="499.5" y2="647"/>
<line id="_x31_5" class="st1" x1="499.5" y1="351" x2="499.5" y2="647"/>
<line id="_x31_6" class="st1" x1="499.5" y1="351" x2="499.5" y2="647"/>
<line id="_x31_7" class="st1" x1="499.5" y1="351" x2="499.5" y2="647"/>
<line id="_x31_8" class="st1" x1="499.5" y1="351" x2="499.5" y2="647"/>
<line id="_x31_9" class="st1" x1="499.5" y1="351" x2="499.5" y2="647"/>
<line id="_x32_0" class="st1" x1="499.5" y1="351" x2="499.5" y2="647"/>
<line id="_x32_1" class="st1" x1="499.5" y1="351" x2="499.5" y2="647"/>
<line id="_x32_2" class="st1" x1="499.5" y1="351" x2="499.5" y2="647"/>
<line id="_x32_3" class="st1" x1="499.5" y1="351" x2="499.5" y2="647"/>
<line id="_x32_4" class="st1" x1="499.5" y1="351" x2="499.5" y2="647"/>
<line id="_x32_5" class="st1" x1="499.5" y1="351" x2="499.5" y2="647"/>
<line id="_x32_6" class="st1" x1="499.5" y1="351" x2="499.5" y2="647"/>
<line id="_x32_7" class="st1" x1="499.5" y1="351" x2="499.5" y2="647"/>
<line id="_x32_8" class="st1" x1="499.5" y1="351" x2="499.5" y2="647"/>
</svg>
