<?xml version="1.0" encoding="utf-8"?>
<!-- Generator: Adobe Illustrator 22.0.1, SVG Export Plug-In . SVG Version: 6.00 Build 0)  -->
<svg version="1.1" id="apple" xmlns="http://www.w3.org/2000/svg" xmlns:xlink="http://www.w3.org/1999/xlink" x="0px" y="0px"
	 viewBox="0 0 1000 1000" style="enable-background:new 0 0 1000 1000;" xml:space="preserve">
<style type="text/css">
	.st0{fill:#E3FAFC;stroke:#000000;stroke-width:9;stroke-miterlimit:10;}
	.st1{fill:#847558;}
	.st2{fill:#92D00D;stroke:#000000;stroke-miterlimit:10;}
	.st3{fill:#92D00D;}
	.st4{fill:#83B508;}
	.st5{fill:#FFFFFF;}
	.st6{fill:none;stroke:#000000;stroke-width:3;stroke-miterlimit:10;}
</style>
<circle id="blue_x5F_apple" class="st0" cx="500.5" cy="495.5" r="188"/>
<g id="apple_1_">
	<path class="st1" d="M488,371h13c0,0,6,19,6,31s-2,19-2,19h-9C496,421,505,398,488,371z"/>
	<path class="st2" d="M622.1,471c-22-66-76-68-83-64c-6.3,3.6-33.6,9.6-39,10.8c-5.4-1.2-32.7-7.2-39-10.8c-7-4-61-2-83,64
		c0,0-12,53,24,102s59,45,59,45s11,2,20,0c7.4-1.6,16.2-1.9,19-2c2.9,0.1,11.6,0.3,19,2c9,2,20,0,20,0s23,4,59-45
		S622.1,471,622.1,471z"/>
	<path class="st3" d="M508,395c0,0,10-40,49-51c0,0,32-1,40-7C597,337,586,405,508,395z"/>
	<path class="st4" d="M600,432c0,0-4,185-205,130c0,0,17,32,31,41s26,22,62,15c0,0,18-6,37,0s47-3,76-53S633,471,600,432z"/>
	<path class="st5" d="M430,421c0,0-39,32-35,90C395,511,364,452,430,421z"/>
	<path class="st6" d="M623.7,501.8c1.5-23-4.9-46-18.8-64.3c-25.3-33.1-60.3-33.7-65.8-30.6c-6.3,3.6-33.6,9.6-39,10.8
		c-5.4-1.2-32.7-7.2-39-10.8c-5.5-3.2-40.5-2.6-65.8,30.6c-14,18.3-20.3,41.3-18.8,64.3c1.3,19.6,7.1,45.9,25.6,71.2
		c36,49,59,45,59,45s11,2,20,0c7.4-1.6,16.2-1.9,19-2c2.9,0.1,11.6,0.3,19,2c9,2,20,0,20,0s23,4,59-45
		C616.6,547.7,622.4,521.4,623.7,501.8z"/>
</g>
</svg>
